<?xml version="1.0" standalone="no"?>
<!DOCTYPE svg PUBLIC "-//W3C//DTD SVG 20010904//EN"
 "http://www.w3.org/TR/2001/REC-SVG-20010904/DTD/svg10.dtd">
<svg version="1.0" xmlns="http://www.w3.org/2000/svg"
 width="616.000000pt" height="616.000000pt" viewBox="0 0 616.000000 616.000000"
 preserveAspectRatio="xMidYMid meet">
<metadata>
Created by potrace 1.11, written by Peter Selinger 2001-2013
</metadata>
<g transform="translate(0.000000,616.000000) scale(0.100000,-0.100000)"
fill="#000000" stroke="none">
<path d="M2705 6130 c-16 -4 -68 -13 -115 -20 -437 -63 -947 -276 -1313 -548
-203 -150 -442 -376 -583 -552 -258 -320 -456 -702 -568 -1094 -85 -296 -142
-759 -117 -956 6 -46 11 -112 11 -146 0 -55 11 -140 40 -311 41 -241 147 -557
271 -805 152 -304 316 -534 558 -782 463 -472 1055 -781 1701 -886 110 -17
171 -20 498 -20 398 0 464 5 690 56 287 64 680 222 899 360 266 169 416 289
614 490 312 319 523 649 682 1064 61 158 138 446 157 580 6 47 16 104 21 127
12 55 12 711 0 765 -6 24 -15 79 -21 123 -6 44 -25 136 -41 205 -209 885 -803
1635 -1619 2045 -275 138 -595 243 -870 285 -41 6 -99 15 -129 21 -65 11 -723
11 -766 -1z m2065 -3055 l0 -465 -65 0 -65 0 0 465 0 465 65 0 65 0 0 -465z
m995 455 c3 -5 -1 -10 -10 -10 -9 0 -13 5 -10 10 3 6 8 10 10 10 2 0 7 -4 10
-10z m-49 -29 c-20 -22 -19 -91 1 -91 7 0 13 -5 13 -11 0 -5 4 -8 9 -4 5 3 12
1 15 -4 4 -5 0 -8 -8 -7 -57 8 -84 83 -45 124 11 13 24 21 27 18 3 -3 -2 -14
-12 -25z m97 14 c27 -27 31 -74 9 -104 -18 -25 -62 -45 -47 -22 3 6 10 9 14 7
9 -6 29 30 32 54 3 29 -1 40 -21 60 -11 11 -16 20 -11 20 5 0 16 -7 24 -15z
m-2373 -10 c0 -13 -125 -153 -132 -149 -5 3 -7 0 -6 -8 2 -9 -10 -13 -41 -14
-24 -1 -40 1 -35 5 5 3 10 12 11 18 2 7 23 44 48 83 l45 70 55 0 c30 0 55 -2
55 -5z m-2645 -29 c22 -9 35 -20 30 -24 -6 -4 -11 -18 -13 -32 -1 -14 -7 -27
-12 -28 -6 -2 -8 -7 -5 -12 3 -4 -18 0 -45 11 -62 24 -159 25 -206 3 -49 -23
-77 -74 -71 -127 7 -60 13 -82 21 -79 4 2 19 -7 35 -20 15 -13 70 -41 122 -63
109 -45 191 -115 202 -174 27 -136 -15 -234 -128 -295 -35 -18 -56 -21 -165
-21 -108 0 -132 3 -172 22 -49 22 -49 23 -30 73 5 14 8 24 11 35 0 3 18 -3 40
-14 76 -39 208 -45 268 -13 12 7 34 28 49 47 27 36 28 43 12 162 -1 7 -5 10
-10 7 -4 -3 -12 6 -18 20 -5 14 -12 26 -15 26 -4 0 -4 -3 -1 -7 2 -5 -53 20
-123 54 -131 63 -164 90 -197 159 -19 40 -16 160 5 173 7 5 12 11 11 15 0 4
12 23 29 43 19 22 34 33 42 28 7 -5 10 -4 6 2 -7 11 60 46 73 38 5 -3 12 0 16
6 10 17 190 6 239 -15z m4988 -1 c-1 -10 3 -27 8 -37 6 -11 6 -18 0 -18 -5 0
-11 7 -15 15 -3 8 -10 15 -16 15 -5 0 -10 -7 -10 -15 0 -29 -16 -15 -18 16 -3
39 5 51 31 47 15 -2 21 -9 20 -23z m-4443 -9 c0 -78 -54 -119 -125 -96 -21 7
-32 16 -29 22 4 7 2 8 -5 4 -6 -4 -18 -3 -25 3 -16 14 -89 10 -75 -4 12 -12
12 -28 -1 -20 -6 3 -7 -1 -4 -9 5 -12 0 -16 -20 -16 -24 0 -26 4 -26 39 0 24
8 48 21 65 17 22 28 26 62 25 42 -2 100 -27 92 -39 -2 -4 13 -4 33 -1 28 5 38
11 40 29 3 17 10 22 33 22 24 0 29 -4 29 -24z m1462 10 c10 -5 15 -12 12 -17
-3 -5 1 -6 8 -4 8 3 28 -5 46 -18 35 -26 86 -86 62 -73 -8 4 -6 1 4 -8 15 -12
20 -33 24 -91 6 -103 -10 -158 -65 -211 -63 -62 -135 -87 -255 -88 l-98 -1 0
-172 0 -173 -55 0 -55 0 0 429 0 430 28 4 c42 8 325 1 344 -7z m-1571 -226
c71 -14 115 -45 147 -105 26 -49 27 -53 30 -287 l4 -238 -45 0 c-46 0 -57 10
-57 51 0 25 -11 24 -33 -1 -10 -12 -23 -18 -29 -14 -6 4 -8 3 -5 -3 4 -6 -5
-15 -19 -22 -131 -59 -261 -14 -294 103 -13 48 -8 118 10 124 5 2 8 8 5 12
-16 25 110 121 137 104 6 -4 8 -3 5 3 -8 13 33 22 123 29 93 7 93 8 85 51 -4
21 -12 47 -18 58 -6 11 -10 23 -9 28 1 4 -1 6 -5 5 -5 -1 -25 6 -47 15 -47 21
-65 21 -135 2 -30 -8 -59 -11 -64 -8 -6 3 -7 1 -4 -4 4 -6 1 -13 -7 -16 -13
-5 -36 30 -36 57 0 16 67 45 130 56 65 11 72 11 131 0z m688 -12 c43 -15 101
-60 94 -71 -3 -6 -1 -7 5 -3 14 8 46 -39 37 -54 -4 -6 -1 -9 5 -8 16 4 38 -60
45 -131 6 -69 -8 -151 -35 -203 -28 -53 -81 -110 -97 -103 -8 2 -11 1 -8 -5
18 -29 -138 -65 -218 -50 -71 14 -88 20 -82 30 3 4 -3 7 -13 6 -9 0 -16 4 -15
11 2 7 -3 10 -11 7 -16 -6 -80 70 -104 123 -12 28 -16 67 -17 143 0 92 3 111
24 155 14 27 36 61 50 75 32 32 91 74 91 64 0 -3 6 -1 14 5 35 29 169 34 235
9z m1448 5 c13 -3 20 -9 17 -14 -3 -5 3 -6 12 -2 12 4 15 3 10 -5 -4 -8 -2
-10 7 -6 17 6 70 -53 61 -68 -4 -7 -2 -8 5 -4 16 10 38 -45 51 -129 18 -112
33 -105 -222 -105 l-221 0 7 -41 c8 -47 32 -100 53 -112 7 -5 11 -13 7 -18 -3
-5 0 -8 8 -7 7 2 12 -3 10 -10 -1 -8 2 -11 8 -7 6 4 18 1 26 -6 24 -20 161
-23 219 -5 27 8 51 14 53 11 2 -2 7 -19 12 -39 7 -33 6 -36 -24 -47 -17 -6
-82 -14 -143 -16 -108 -5 -115 -4 -170 23 -67 32 -106 70 -136 134 -19 38 -22
63 -22 155 0 94 3 117 23 158 13 26 27 45 32 42 6 -3 7 0 4 8 -7 19 85 100
105 92 8 -3 12 -2 7 2 -4 4 14 13 41 20 44 11 105 9 160 -4z m559 -39 l1 -50
-35 -2 c-20 -2 -52 -13 -72 -25 -19 -12 -39 -21 -43 -19 -5 1 -6 -1 -3 -6 3
-5 -4 -26 -14 -48 -18 -34 -20 -59 -20 -236 l0 -198 -55 0 -55 0 0 294 c0 162
-3 301 -6 310 -5 13 2 16 45 16 l51 0 0 -55 c0 -30 3 -55 8 -55 4 0 20 20 35
44 31 49 96 87 142 83 17 -2 20 -10 21 -53z m455 24 c55 -23 125 -90 114 -109
-5 -7 -4 -10 2 -6 13 8 36 -41 27 -55 -4 -6 -2 -8 4 -4 29 18 27 -198 -2 -268
-20 -48 -75 -118 -87 -110 -5 3 -9 0 -9 -6 0 -6 -25 -22 -54 -36 -90 -41 -252
-32 -293 16 -9 10 -20 17 -23 15 -12 -8 -72 76 -92 127 -31 84 -34 154 -8 242
18 59 33 88 64 121 93 99 230 128 357 73z m779 22 c29 -6 59 -18 67 -28 8 -9
11 -11 7 -3 -4 7 7 4 23 -9 17 -12 41 -43 54 -68 21 -42 24 -63 26 -197 2 -82
4 -189 6 -238 l2 -87 -46 0 c-45 0 -47 1 -53 35 -4 19 -10 35 -14 35 -4 0 -20
-14 -36 -31 -17 -16 -36 -27 -43 -24 -8 2 -11 1 -8 -5 7 -11 -53 -24 -110 -24
-42 -1 -139 41 -138 59 0 6 -7 15 -15 21 -8 6 -15 25 -16 41 0 17 -5 29 -10
26 -5 -4 -6 17 -2 48 16 125 113 192 301 208 l70 6 -2 44 c-1 28 -9 51 -23 66
-11 12 -18 24 -14 27 3 4 -19 11 -49 18 -57 11 -115 4 -183 -25 -19 -8 -32
-10 -29 -5 3 4 1 10 -4 12 -4 1 -11 13 -15 25 -9 29 22 50 105 68 80 17 85 17
149 5z m597 -7 c13 -3 21 -9 18 -13 -3 -5 4 -6 15 -3 23 6 26 -8 9 -55 -10
-30 -11 -30 -44 -16 -51 21 -137 18 -168 -6 -32 -26 -41 -63 -23 -98 14 -26
45 -47 117 -75 140 -56 193 -159 136 -267 -34 -65 -106 -100 -206 -100 -80 0
-136 11 -163 32 -15 12 -15 16 -2 50 l15 36 42 -19 c61 -27 154 -26 194 4 27
20 30 28 30 75 1 29 -1 51 -4 49 -2 -3 -15 5 -28 17 -13 13 -42 29 -65 36 -22
7 -40 17 -40 22 0 4 -3 7 -7 7 -21 -3 -33 2 -27 13 4 6 3 8 -4 4 -15 -9 -72
43 -88 81 -18 43 -18 87 2 126 21 41 55 78 65 71 5 -3 9 0 9 6 0 6 5 8 10 5 6
-3 10 -1 10 5 0 7 7 10 15 6 8 -3 15 -1 15 4 0 18 97 20 167 3z"/>
<path d="M5746 3465 c-4 -13 -2 -14 14 -5 23 13 26 20 6 20 -8 0 -16 -7 -20
-15z"/>
<path d="M2560 3403 c-21 -9 -43 -33 -31 -33 7 0 11 -56 13 -157 l3 -158 79
-3 c102 -4 170 25 205 89 27 47 32 129 11 169 -18 36 -51 70 -67 70 -8 0 -12
4 -9 8 5 9 1 9 -109 16 -44 3 -87 3 -95 -1z"/>
<path d="M1155 2925 c-27 -7 -54 -11 -59 -8 -5 4 -6 1 -3 -4 4 -6 0 -13 -8
-17 -22 -8 -55 -67 -55 -99 0 -43 25 -83 65 -101 39 -19 78 -15 130 12 17 9
35 17 40 17 6 1 9 7 7 14 -1 6 4 22 13 34 10 14 15 45 15 94 l0 73 -47 -1
c-27 0 -70 -6 -98 -14z"/>
<path d="M1693 3163 c3 -5 -9 -31 -28 -57 -41 -58 -59 -129 -53 -210 7 -78 37
-138 90 -176 34 -25 51 -30 98 -30 47 0 64 5 97 29 23 16 44 27 49 23 4 -4 4
-1 0 6 -4 6 -2 12 3 12 6 0 10 3 9 8 -1 4 6 28 16 54 26 67 19 185 -14 252
-14 27 -30 51 -37 53 -7 3 -10 9 -7 14 3 5 2 9 -3 8 -4 -1 -21 3 -36 9 -39 16
-116 15 -150 -3 -15 -8 -25 -10 -22 -5 3 5 0 12 -6 16 -7 4 -9 3 -6 -3z"/>
<path d="M3215 3168 c-16 -6 -37 -17 -46 -24 -9 -8 -18 -12 -21 -9 -3 3 -11
-2 -19 -12 -12 -14 -12 -15 0 -9 8 5 12 5 9 0 -16 -34 -37 -83 -42 -101 l-7
-23 172 0 172 0 -7 41 c-4 23 -12 51 -19 63 -6 11 -12 27 -12 33 0 7 -4 13 -8
12 -4 0 -19 7 -32 15 -32 21 -102 28 -140 14z"/>
<path d="M4205 3168 c-22 -5 -52 -20 -66 -34 -15 -15 -31 -24 -36 -21 -5 3 -9
-2 -10 -11 -1 -9 -9 -37 -19 -62 -23 -61 -23 -172 1 -225 11 -22 19 -44 19
-50 1 -5 8 -14 17 -20 8 -5 31 -20 50 -32 49 -33 124 -31 173 2 21 14 42 22
48 19 6 -4 8 -2 5 3 -4 6 4 31 18 55 49 87 42 228 -15 307 -45 62 -107 85
-185 69z"/>
<path d="M5090 2926 c-25 -7 -54 -17 -64 -21 -15 -6 -17 -5 -11 5 6 9 4 11 -4
6 -7 -5 -10 -10 -7 -13 3 -3 -5 -20 -17 -37 -35 -49 -30 -106 12 -150 30 -31
38 -34 78 -30 25 2 59 12 76 21 18 10 36 16 42 14 5 -1 7 1 2 5 -4 4 1 16 10
27 13 14 19 41 22 103 l3 84 -48 -1 c-27 0 -69 -6 -94 -13z"/>
</g>
</svg>
